<?xml version="1.0" encoding="UTF-8"?>
<!-- Generator: Adobe Illustrator 16.0.0, SVG Export Plug-In . SVG Version: 6.00 Build 0)  -->
<!DOCTYPE svg PUBLIC "-//W3C//DTD SVG 1.1//EN" "http://www.w3.org/Graphics/SVG/1.1/DTD/svg11.dtd">
<svg version="1.1" id="Layer_1" xmlns="http://www.w3.org/2000/svg" xmlns:xlink="http://www.w3.org/1999/xlink" x="0px" y="0px" width="30px" height="30px" viewBox="0 0 30 30" enable-background="new 0 0 30 30" xml:space="preserve">
<g id="pinterest">
	<g>
		<path fill-rule="evenodd" clip-rule="evenodd" fill="#B8B8B8" d="M15.5,3.135c-6.627,0-12,5.373-12,12    c0,4.939,2.985,9.182,7.249,11.023c-0.031-0.836-0.001-1.834,0.211-2.738c0.232-0.977,1.551-6.563,1.551-6.563    s-0.385-0.77-0.385-1.906c0-1.783,1.035-3.117,2.322-3.117c1.096,0,1.625,0.824,1.625,1.81c0,1.101-0.702,2.747-1.064,4.272    c-0.301,1.277,0.643,2.32,1.902,2.32c2.28,0,3.816-2.931,3.816-6.404c0-2.639-1.775-4.615-5.01-4.615    c-3.652,0-5.931,2.725-5.931,5.769c0,1.049,0.311,1.79,0.796,2.362c0.223,0.263,0.253,0.369,0.172,0.672    c-0.059,0.221-0.188,0.754-0.244,0.967c-0.08,0.305-0.328,0.412-0.604,0.3c-1.682-0.686-2.467-2.528-2.467-4.6    c0-3.422,2.886-7.524,8.607-7.524c4.6,0,7.625,3.328,7.625,6.898c0,4.727-2.627,8.255-6.498,8.255c-1.301,0-2.524-0.703-2.941-1.5    c0,0-0.701,2.772-0.848,3.31c-0.253,0.915-0.74,1.829-1.191,2.549c1.049,0.3,2.158,0.461,3.306,0.461c6.627,0,12-5.373,12-12    S22.127,3.135,15.5,3.135z"/>
	</g>
</g>
</svg>