<?xml version="1.0" encoding="UTF-8"?>
<!-- Generator: Adobe Illustrator 16.0.0, SVG Export Plug-In . SVG Version: 6.00 Build 0)  -->
<!DOCTYPE svg PUBLIC "-//W3C//DTD SVG 1.1//EN" "http://www.w3.org/Graphics/SVG/1.1/DTD/svg11.dtd">
<svg version="1.1" id="Layer_1" xmlns="http://www.w3.org/2000/svg" xmlns:xlink="http://www.w3.org/1999/xlink" x="0px" y="0px" width="30px" height="30px" viewBox="0 0 30 30" enable-background="new 0 0 30 30" xml:space="preserve">
<g id="twitter">
	<g>
		<path fill-rule="evenodd" clip-rule="evenodd" fill="#B8B8B8" d="M27,7.843c-0.404,0.223-1.617,0.669-2.746,0.779    c0.725-0.391,1.798-1.671,2.063-2.689c-0.697,0.447-2.298,1.096-3.088,1.096c0,0,0,0.001,0,0.002    c-0.901-0.942-2.171-1.687-3.578-1.687c-2.734,0-4.732,2.373-4.732,5.106c0,0.38,0.044,0.75,0.125,1.105h-0.001    C11.333,11.458,7.059,9.412,4.616,6.23c-1.501,2.599-0.202,5.676,1.502,6.729c-0.583,0.044-1.657-0.067-2.162-0.561    c-0.034,1.725,0.795,4.01,3.819,4.839c-0.582,0.313-1.613,0.224-2.062,0.157c0.157,1.456,2.196,3.359,4.426,3.359    C9.345,21.674,6.355,23.341,3,22.811C5.278,24.197,7.935,25,10.745,25c7.988,0,14.535-6.474,14.201-14.46    c-0.001-0.009-0.001-0.018-0.002-0.027c0.001-0.021,0.002-0.041,0.002-0.063c0-0.024-0.002-0.048-0.003-0.072    C25.671,9.881,26.303,9.001,27,7.843z"/>
	</g>
</g>
</svg>